<?xml version="1.0" standalone="no"?>
<!DOCTYPE svg PUBLIC "-//W3C//DTD SVG 20010904//EN" "http://www.w3.org/TR/2001/REC-SVG-20010904/DTD/svg10.dtd">
<svg version="1.0" xmlns="http://www.w3.org/2000/svg" width="458.000000pt" height="512.000000pt" viewBox="0 0 458.000000 512.000000" preserveAspectRatio="xMidYMid meet">

<g transform="translate(0.000000,512.000000) scale(0.100000,-0.100000)"
fill="#fff" stroke="none">
	<path d="M2215 5068 c-503 -370 -1030 -574 -1650 -639 -60 -6 -210 -12 -332 -12 l-221 -1 -8 -96 c-8 -116 11 -668 31 -880 139 -1448 657 -2432 1593 -3023 183 -115 603 -317 661 -317 17 0 173 60 223 86 l27 14 -44 63 c-60 86 -129 233 -159 338 -136 476 55 990 469 1261 l95 61 -52 35 c-60 41 -133 113 -153 153 -15 27 -14 30 38 91 161 191 318 418 357 517 24 62 26 142 5 175 -9 13 -29 29 -45 36 l-30 12 0 238 c0 209 -2 246 -20 302 -50 164 -202 313 -438 432 -196 99 -399 150 -462 116 -10 -5 -28 -36 -40 -67 -12 -32 -26 -63 -32 -70 -6 -7 -51 -32 -102 -56 -50 -24 -117 -65 -148 -90 -71 -59 -148 -172 -177 -263 -20 -64 -22 -84 -19 -297 2 -125 0 -227 -4 -227 -4 0 -24 -15 -44 -32 -41 -36 -64 -82 -64 -128 0 -79 93 -231 296 -487 154 -194 145 -171 98 -233 -47 -62 -134 -130 -228 -177 -38 -19 -166 -67 -285 -107 -238 -81 -320 -115 -399 -169 l-52 -36 -24 37 c-46 74 -135 249 -181 356 -159 376 -262 802 -310 1286 -20 206 -37 651 -29 771 l7 96 246 6 c142 3 289 12 349 21 459 70 853 230 1230 501 50 36 93 65 96 65 3 0 46 -25 96 -55 418 -254 830 -432 1172 -509 189 -42 320 -58 499 -58 l166 -1 6 -174 c21 -660 -77 -1316 -269 -1808 -31 -77 -57 -147 -60 -155 -4 -11 15 -25 63 -49 37 -18 96 -53 131 -78 35 -25 65 -43 66 -41 39 43 182 441 245 678 128 482 193 1104 175 1678 l-7 222 -179 0 c-211 0 -321 11 -518 50 -435 87 -907 282 -1410 582 -69 41 -136 82 -150 91 -26 16
	-27 16 -95 -35z"/>
	<path d="M3203 1796 c-351 -93 -616 -384 -674 -740 -18 -114 -7 -291 25 -399 90 -302 308 -522 616 -622 114 -37 314 -46 441 -20 290 58 530 248 655 520 80 173 102 403 56 589 -77 311 -305 556 -612 658 -88 29 -107 32 -255 35 -144 3 -169 1 -252 -21z m776 -433 c-8 -10 -39 -47 -70 -83 -156 -182 -410 -564 -555 -836 l-56 -104 -47 93 c-102 200 -210 329 -380 454 -11 8 25 53 50 64 85 35 213 -8 320 -109 l47 -43 76 111 c102 148 340 444 368 458 13 6 76 11 142 11 111 1 118 0 105 -16z"/>
</g>
</svg>
