<?xml version="1.0" standalone="no"?>
<!DOCTYPE svg PUBLIC "-//W3C//DTD SVG 20010904//EN"
 "http://www.w3.org/TR/2001/REC-SVG-20010904/DTD/svg10.dtd">
<svg version="1.0" xmlns="http://www.w3.org/2000/svg"
 width="410.000000pt" height="410.000000pt" viewBox="0 0 410.000000 410.000000"
 preserveAspectRatio="xMidYMid meet">
<metadata>
Created by potrace 1.14, written by Peter Selinger 2001-2017
</metadata>
<g transform="translate(0.000000,410.000000) scale(0.100000,-0.100000)"
fill="#000000" stroke="none">
<path d="M2585 4092 c-683 -64 -1263 -524 -1474 -1170 -60 -183 -83 -338 -82
-542 0 -109 3 -141 15 -235 5 -38 8 -50 22 -120 26 -128 92 -307 161 -435 41
-76 137 -227 152 -240 4 -3 19 -21 35 -40 68 -84 193 -206 261 -257 17 -13 50
-38 75 -56 150 -112 430 -236 610 -271 14 -2 48 -9 77 -15 58 -11 136 -20 231
-25 l62 -3 1 41 c0 43 0 205 -1 267 l0 36 -57 2 c-320 11 -639 147 -880 375
-342 323 -490 797 -396 1266 81 406 360 762 738 945 185 90 340 130 532 139
29 2 56 5 59 9 5 4 8 208 5 314 -1 19 -6 21 -58 20 -32 -1 -71 -3 -88 -5z"/>
<path d="M2668 3415 c-2 -2 -31 -6 -65 -9 -213 -22 -449 -141 -606 -305 -144
-150 -224 -304 -268 -511 -33 -158 -18 -376 36 -537 63 -184 221 -392 384
-502 103 -70 250 -136 347 -156 87 -18 157 -26 194 -23 l43 3 -1 163 c0 90 -2
165 -4 167 -2 1 -34 5 -71 9 -204 19 -403 148 -512 331 -107 180 -122 426 -38
620 49 112 151 232 254 298 339 217 788 100 974 -253 37 -71 71 -184 79 -265
2 -27 5 -51 5 -52 1 -2 77 -3 169 -3 l169 0 -3 65 c-5 125 -41 258 -105 388
-166 340 -502 557 -881 570 -54 2 -99 3 -100 2z"/>
<path d="M345 2303 c4 -93 15 -215 21 -248 3 -11 6 -34 8 -50 3 -17 7 -42 10
-55 3 -14 8 -36 10 -50 7 -41 36 -149 63 -235 250 -784 894 -1389 1689 -1589
55 -13 113 -27 129 -29 17 -3 61 -10 100 -17 93 -15 142 -20 258 -25 95 -4 97
-4 97 18 3 120 -1 311 -5 315 -3 3 -34 7 -68 8 -119 3 -234 17 -332 39 -33 8
-72 16 -86 19 -34 6 -167 48 -254 81 -165 62 -364 178 -541 314 -138 106 -343
339 -451 512 -110 176 -211 423 -257 630 -34 154 -43 232 -50 399 l-1 45 -172
3 -172 2 4 -87z"/>
</g>
</svg>
